<svg width="28" height="28" viewBox="0 0 28 28" fill="none" xmlns="http://www.w3.org/2000/svg">
<path d="M13.9993 27.3332C6.63555 27.3332 0.666016 21.3636 0.666016 13.9998C0.666016 6.63604 6.63555 0.666504 13.9993 0.666504C21.3631 0.666504 27.3327 6.63604 27.3327 13.9998C27.3246 21.3603 21.3598 27.3251 13.9993 27.3332ZM12.666 20.6665V23.3332H15.3327V20.6665H12.666ZM13.9993 7.33317C15.4721 7.33317 16.666 8.52708 16.666 9.99984C16.6707 10.7075 16.3866 11.3864 15.8793 11.8798L14.226 13.5598C13.2279 14.5621 12.6671 15.9187 12.666 17.3332V17.9998H15.3327C15.2291 16.5665 15.8072 15.1682 16.8927 14.2265L18.0927 12.9998C18.8901 12.2056 19.3366 11.1253 19.3327 9.99984C19.3327 7.05432 16.9449 4.6665 13.9993 4.6665C11.0538 4.6665 8.66602 7.05432 8.66602 9.99984H11.3327C11.3327 8.52708 12.5266 7.33317 13.9993 7.33317Z" fill="white"/>
</svg>
