<svg width="1440" height="678" viewBox="0 0 1440 678" fill="none" xmlns="http://www.w3.org/2000/svg">
<path d="M0 0H1440V437H0V0ZM0 617L26.4 599C52.8 581 106.8 545 159.6 533C213.6 521 266.4 533 320.4 539C373.2 545 427.2 545 480 581C532.8 617 586.8 689 639.6 677C693.6 665 746.4 569 800.4 533C853.2 497 907.2 521 960 545C1012.8 569 1066.8 593 1119.6 587C1173.6 581 1226.4 545 1280.4 527C1333.2 509 1387.2 509 1413.6 509H1440V437H1413.6C1387.2 437 1333.2 437 1280.4 437C1226.4 437 1173.6 437 1119.6 437C1066.8 437 1012.8 437 960 437C907.2 437 853.2 437 800.4 437C746.4 437 693.6 437 639.6 437C586.8 437 532.8 437 480 437C427.2 437 373.2 437 320.4 437C266.4 437 213.6 437 159.6 437C106.8 437 52.8 437 26.4 437H0V617Z" fill="#0D1622"/>
<path fill-rule="evenodd" clip-rule="evenodd" d="M0 0H1440V437H0V0ZM0 617L26.4 599C52.8 581 106.8 545 159.6 533C213.6 521 266.4 533 320.4 539C373.2 545 427.2 545 480 581C532.8 617 586.8 689 639.6 677C693.6 665 746.4 569 800.4 533C853.2 497 907.2 521 960 545C1012.8 569 1066.8 593 1119.6 587C1173.6 581 1226.4 545 1280.4 527C1333.2 509 1387.2 509 1413.6 509H1440V437H1413.6C1387.2 437 1333.2 437 1280.4 437C1226.4 437 1173.6 437 1119.6 437C1066.8 437 1012.8 437 960 437C907.2 437 853.2 437 800.4 437C746.4 437 693.6 437 639.6 437C586.8 437 532.8 437 480 437C427.2 437 373.2 437 320.4 437C266.4 437 213.6 437 159.6 437C106.8 437 52.8 437 26.4 437H0V617Z" fill="#0D1622"/>
</svg>
